<?xml version="1.0" standalone="no"?>
<!DOCTYPE svg PUBLIC "-//W3C//DTD SVG 20010904//EN"
 "http://www.w3.org/TR/2001/REC-SVG-20010904/DTD/svg10.dtd">
<svg version="1.0" xmlns="http://www.w3.org/2000/svg"
 width="700.000000pt" height="700.000000pt" viewBox="0 0 700.000000 700.000000"
 preserveAspectRatio="xMidYMid meet">
<metadata>
Created by potrace 1.11, written by Peter Selinger 2001-2013
</metadata>
<g transform="translate(0.000000,700.000000) scale(0.100000,-0.100000)"
fill="#000000" stroke="none">
<path d="M2875 6974 c-71 -14 -182 -38 -245 -54 -118 -30 -417 -126 -435 -140
-5 -4 -35 -17 -65 -28 -30 -11 -77 -32 -105 -45 -27 -13 -70 -34 -95 -45 -25
-11 -74 -37 -110 -57 -36 -21 -85 -49 -110 -63 -64 -36 -202 -127 -290 -191
-445 -324 -827 -773 -1070 -1261 -160 -320 -253 -596 -319 -946 l-30 -159 0
-485 c0 -439 2 -495 20 -595 95 -531 294 -1013 590 -1431 51 -71 58 -88 62
-140 17 -209 34 -267 125 -437 119 -221 180 -294 327 -391 117 -78 387 -188
408 -167 20 20 -3 38 -90 71 -113 42 -244 106 -307 149 -111 76 -215 210 -309
396 -62 121 -78 174 -100 327 -5 32 8 37 23 9 5 -11 16 -25 22 -33 88 -92 134
-157 163 -228 41 -102 86 -176 161 -264 58 -68 197 -200 233 -221 9 -5 42 -28
72 -50 131 -95 283 -163 489 -219 131 -35 146 -38 220 -42 36 -2 74 -7 85 -12
91 -42 294 -107 460 -147 281 -69 265 -68 795 -72 451 -4 523 -2 665 22 284
49 545 129 832 257 629 280 1195 776 1554 1363 63 102 137 235 139 250 1 6 11
22 21 37 10 14 19 29 19 32 0 3 13 33 29 68 16 35 36 79 44 98 23 51 101 268
116 320 8 25 20 65 27 90 15 51 61 239 68 285 38 215 37 211 33 715 -2 272 -7
511 -11 530 -3 19 -9 46 -12 60 -3 14 -8 36 -10 50 -28 158 -106 425 -181 615
-48 122 -180 401 -203 430 -4 6 -20 33 -36 60 -15 28 -48 82 -73 120 -449 690
-1094 1190 -1862 1445 -118 39 -356 103 -429 114 -19 3 -46 8 -60 11 -14 3
-41 8 -60 12 -19 4 -264 8 -545 9 -505 2 -511 2 -640 -22z"/>
</g>
</svg>
