<svg id="icon" height="512" viewBox="0 0 128 128" width="512" xmlns="http://www.w3.org/2000/svg"><circle cx="64.001" cy="120.205" fill="#9297ab" r="6.795"/><path d="m64 128a7.795 7.795 0 1 1 7.794-7.795 7.8 7.8 0 0 1 -7.794 7.795zm0-13.59a5.795 5.795 0 1 0 5.794 5.795 5.8 5.8 0 0 0 -5.794-5.795z" fill="#2f3a5a"/><path d="m61.311 16.522a37.886 37.886 0 0 0 -23.668 65.013 23.545 23.545 0 0 1 6.957 16.96v2.224a3.764 3.764 0 0 0 3.764 3.764h31.272a3.764 3.764 0 0 0 3.764-3.764v-2.685a23.076 23.076 0 0 1 7.007-16.547 37.888 37.888 0 0 0 -29.1-64.965z" fill="#ffc943"/><path d="m101.893 54.324a37.8 37.8 0 0 1 -11.485 27.164 23.044 23.044 0 0 0 -7.008 16.549v2.681a3.765 3.765 0 0 1 -3.765 3.765h-12.735a3.758 3.758 0 0 0 3.765-3.765v-2.681a23.092 23.092 0 0 1 7.006-16.549 37.891 37.891 0 0 0 -20.04-64.527c1.215-.2 2.442-.357 3.681-.441a37.9 37.9 0 0 1 40.581 37.804z" fill="#f7b521"/><path d="m79.636 105.482h-31.272a4.77 4.77 0 0 1 -4.764-4.764v-2.223a22.627 22.627 0 0 0 -6.653-16.241 38.886 38.886 0 0 1 24.295-66.73 38.584 38.584 0 0 1 29.289 10.36 39.03 39.03 0 0 1 12.36 28.437 38.574 38.574 0 0 1 -11.791 27.879 22.2 22.2 0 0 0 -6.7 15.83v2.685a4.77 4.77 0 0 1 -4.764 4.767zm-18.256-87.962a36.887 36.887 0 0 0 -23.041 63.3 24.635 24.635 0 0 1 7.261 17.675v2.224a2.768 2.768 0 0 0 2.764 2.764h31.272a2.768 2.768 0 0 0 2.765-2.764v-2.685a24.214 24.214 0 0 1 7.309-17.264 36.589 36.589 0 0 0 11.181-26.45 37.025 37.025 0 0 0 -11.724-26.974 36.609 36.609 0 0 0 -27.787-9.826z" fill="#2f3a5a"/><path d="m49.983 104.482v12.508a2.5 2.5 0 0 0 2.5 2.5h23.035a2.5 2.5 0 0 0 2.5-2.5v-12.508z" fill="#9297ab"/><path d="m78.018 104.483v12.51a2.5 2.5 0 0 1 -2.5 2.5h-23.032a2.5 2.5 0 0 1 -2.5-2.5v-.572h18.739a2.5 2.5 0 0 0 2.5-2.5v-9.436z" fill="#84879c"/><g fill="#2f3a5a"><path d="m75.519 120.491h-23.035a3.5 3.5 0 0 1 -3.5-3.5v-12.509a1 1 0 0 1 1-1h28.036a1 1 0 0 1 1 1v12.508a3.5 3.5 0 0 1 -3.501 3.501zm-24.536-15.009v11.508a1.5 1.5 0 0 0 1.5 1.5h23.036a1.5 1.5 0 0 0 1.5-1.5v-11.508z"/><path d="m64 8.74a1 1 0 0 1 -1-1v-6.74a1 1 0 0 1 2 0v6.74a1 1 0 0 1 -1 1z"/><path d="m116.674 54.674h-6.74a1 1 0 0 1 0-2h6.74a1 1 0 0 1 0 2z"/><path d="m18.065 54.674h-6.74a1 1 0 1 1 0-2h6.74a1 1 0 1 1 0 2z"/></g><path d="m96.481 21.194 4.765-4.766" fill="#84879c"/><path d="m96.48 22.193a1 1 0 0 1 -.707-1.707l4.766-4.766a1 1 0 0 1 1.414 1.414l-4.765 4.766a1 1 0 0 1 -.708.293z" fill="#2f3a5a"/><path d="m26.754 16.428 4.765 4.766" fill="#84879c"/><path d="m31.52 22.193a1 1 0 0 1 -.707-.293l-4.766-4.766a1 1 0 0 1 1.414-1.414l4.766 4.766a1 1 0 0 1 -.707 1.707z" fill="#2f3a5a"/><path d="m82.55 11.652 2.722-6.166" fill="#84879c"/><path d="m82.549 12.652a1 1 0 0 1 -.915-1.4l2.722-6.166a1 1 0 0 1 1.83.808l-2.722 6.166a1 1 0 0 1 -.915.592z" fill="#2f3a5a"/><path d="m15.812 32.403 6.166 2.721" fill="#84879c"/><path d="m21.977 36.125a1 1 0 0 1 -.4-.085l-6.166-2.722a1 1 0 0 1 .808-1.83l6.166 2.722a1 1 0 0 1 -.4 1.916z" fill="#2f3a5a"/><path d="m106.831 37.077 6.284-2.436" fill="#84879c"/><path d="m106.831 38.077a1 1 0 0 1 -.361-1.933l6.284-2.436a1 1 0 1 1 .723 1.865l-6.284 2.436a1 1 0 0 1 -.362.068z" fill="#2f3a5a"/><path d="m44.967 4.559 2.435 6.284" fill="#84879c"/><path d="m47.4 11.844a1 1 0 0 1 -.933-.639l-2.432-6.285a1 1 0 1 1 1.865-.72l2.435 6.285a1 1 0 0 1 -.933 1.362z" fill="#2f3a5a"/><path d="m82.988 44.853c-7.556-10.076-18.407-.969-18.988-.775-.581-.194-11.432-9.3-18.988.775s4.844 26.547 18.988 34.489c14.144-7.942 26.545-24.414 18.988-34.489z" fill="#ef5361"/><path d="m64 79.342q-1.226-.689-2.432-1.462c13.715-8.143 25.354-24.07 17.978-33.905a11.977 11.977 0 0 0 -4.516-3.833c2.688.186 5.5 1.432 7.957 4.711 7.559 10.074-4.843 26.547-18.987 34.489z" fill="#da2a47"/><path d="m64 80.489-.49-.275c-10.794-6.063-19.601-16.314-21.418-24.935a13.113 13.113 0 0 1 2.12-11.026c2.739-3.653 8.95-8.676 19.788-1.363 10.839-7.312 17.049-2.29 19.788 1.362a13.113 13.113 0 0 1 2.12 11.026c-1.817 8.622-10.624 18.873-21.418 24.936zm-10.318-39.383c-3.067 0-5.7 1.449-7.871 4.346a11.2 11.2 0 0 0 -1.763 9.414c1.681 7.968 9.852 17.496 19.952 23.325 10.1-5.829 18.271-15.356 19.951-23.325a11.2 11.2 0 0 0 -1.763-9.414c-4.119-5.49-9.882-5.78-17.135-.86a3.173 3.173 0 0 1 -.737.434l-.316.106-.316-.105a3.171 3.171 0 0 1 -.736-.434q-5.139-3.486-9.266-3.487z" fill="#2f3a5a"/></svg>