<svg id="_x31__x2C_5" height="50" viewBox="0 0 24 24" width="50" xmlns="http://www.w3.org/2000/svg"><path d="m21.25.75h-7c-.86 0-1.63.36-2.18.94l-10.77 11.19c-.34.35-.55.84-.55 1.37 0 .55.22 1.05.59 1.41l7 7c.36.37.86.59 1.41.59.53 0 1.02-.21 1.37-.55l11.19-10.77c.58-.55.94-1.32.94-2.18v-7c0-1.1-.9-2-2-2z" fill="#cfd8dc"/><path d="m13.62 13.15c-.62-.62-1.53-.78-2.29-.48.3-.76.14-1.67-.48-2.29-.84-.84-2.2-.84-3.03 0-1.64 1.64-.91 6.71-.91 6.71s5.07.73 6.71-.91c.84-.83.84-2.19 0-3.03z" fill="#f44336"/><path d="m19 6.25c-.689 0-1.25-.561-1.25-1.25s.561-1.25 1.25-1.25 1.25.561 1.25 1.25-.561 1.25-1.25 1.25z" fill="#90a4ae"/><path d="m9.391 18.006c-1.279 0-2.343-.143-2.584-.178-.329-.048-.586-.306-.634-.634-.081-.557-.736-5.494 1.116-7.347 1.126-1.128 2.962-1.129 4.089 0 .525.525.817 1.218.846 1.93.712.028 1.405.32 1.93.845 1.127 1.127 1.127 2.962 0 4.089-1.05 1.05-3.091 1.295-4.763 1.295zm-1.804-1.593c1.86.191 4.604.14 5.506-.762.262-.263.407-.612.407-.984 0-.373-.145-.722-.407-.984-.391-.392-.977-.514-1.491-.312-.277.108-.595.044-.806-.167s-.277-.528-.167-.806c.203-.513.08-1.098-.313-1.491-.524-.524-1.442-.525-1.968 0-.901.902-.952 3.644-.761 5.506z"/><path d="m9.75 24c-.735 0-1.426-.286-1.945-.806l-7-7c-.519-.518-.805-1.209-.805-1.944 0-.706.267-1.377.752-1.89l10.778-11.192c.7-.74 1.694-1.168 2.72-1.168h7c1.517 0 2.75 1.233 2.75 2.75v7c0 1.025-.427 2.017-1.17 2.722l-11.185 10.771c-.518.49-1.189.757-1.895.757zm4.5-22.5c-.625 0-1.206.25-1.635.704l-10.778 11.192c-.215.228-.337.533-.337.854 0 .334.13.648.366.883l7 7c.462.463 1.267.474 1.743.024l11.183-10.767c.001-.002.003-.003.004-.005.454-.429.704-1.01.704-1.635v-7c0-.689-.561-1.25-1.25-1.25z"/><path d="m19 7c-1.103 0-2-.897-2-2s.897-2 2-2 2 .897 2 2-.897 2-2 2zm0-2.5c-.276 0-.5.224-.5.5s.224.5.5.5.5-.224.5-.5-.224-.5-.5-.5z"/></svg>