<?xml version="1.0" standalone="no"?>
<!DOCTYPE svg PUBLIC "-//W3C//DTD SVG 20010904//EN"
 "http://www.w3.org/TR/2001/REC-SVG-20010904/DTD/svg10.dtd">
<svg version="1.0" xmlns="http://www.w3.org/2000/svg"
 width="100.000000pt" height="100.000000pt" viewBox="0 0 600.000000 600.000000"
 preserveAspectRatio="xMidYMid meet">
<circle cx="300" cy="300" r="300" stroke="black" stroke-width="5" fill="white" />
<g transform="translate(0.000000,600.000000) scale(0.100000,-0.100000)"
fill="#000000" stroke="none">
<path d="M2677 5735 c-128 -19 -201 -50 -268 -111 -67 -61 -128 -98 -189 -114
-25 -7 -75 -28 -113 -47 -106 -56 -296 -264 -485 -531 -51 -73 -94 -169 -176
-394 -41 -114 -93 -249 -115 -300 -109 -252 -264 -698 -242 -698 25 0 48 44
100 200 33 96 76 216 96 265 75 187 138 335 143 335 2 0 1 -8 -3 -17 -11 -25
-164 -473 -239 -698 -35 -104 -94 -275 -131 -380 -84 -238 -140 -430 -194
-660 -82 -351 -145 -601 -177 -700 -41 -126 -90 -320 -104 -405 -24 -158 -4
-466 39 -581 26 -68 135 -261 187 -330 43 -57 125 -122 218 -174 75 -42 274
-118 287 -110 15 10 10 35 -9 42 -299 105 -419 190 -529 375 -126 210 -147
282 -159 528 -7 149 3 247 39 375 l22 80 6 -150 c10 -230 57 -492 118 -650 62
-160 188 -309 374 -443 120 -86 185 -120 327 -170 123 -43 321 -87 329 -74 5
8 25 8 73 0 37 -6 73 -8 81 -5 8 3 27 43 42 89 14 46 37 101 49 123 28 48 81
256 97 379 21 166 7 400 -50 806 -28 201 -51 370 -50 375 0 6 10 -8 22 -30 12
-22 49 -80 81 -130 82 -125 104 -162 156 -256 36 -66 64 -100 148 -178 57 -53
129 -110 160 -126 31 -17 85 -50 119 -73 35 -23 84 -52 110 -63 109 -48 306
-111 418 -135 104 -22 134 -25 223 -19 115 7 182 27 281 82 l66 36 -45 -45
c-65 -67 -95 -165 -94 -308 1 -75 6 -120 20 -160 19 -54 20 -55 54 -52 45 4
280 -25 395 -48 50 -10 138 -22 198 -26 59 -4 107 -11 107 -15 0 -5 9 -9 19
-9 12 0 40 24 68 58 26 31 89 98 139 147 106 106 147 170 203 320 90 244 101
354 88 871 -6 214 -11 567 -12 784 -3 857 -21 1149 -90 1435 -68 283 -194 549
-373 788 -56 73 -111 129 -225 228 -258 222 -606 472 -769 553 -115 56 -289
121 -366 136 -93 18 -394 21 -495 5z m373 -741 c152 -101 257 -192 487 -417
178 -175 198 -199 278 -325 186 -294 194 -307 176 -310 -98 -15 -181 -41 -233
-71 -67 -39 -85 -59 -75 -85 11 -29 66 -22 317 41 l25 6 -25 7 -25 8 24 1 c13
1 29 8 35 16 9 13 18 4 50 -52 21 -37 62 -100 91 -139 l53 -71 -47 8 c-105 18
-159 10 -258 -38 -53 -26 -178 -132 -155 -133 7 0 39 25 72 55 33 30 62 55 64
55 2 0 3 -8 2 -17 -2 -10 10 -34 25 -54 16 -20 29 -41 29 -47 0 -18 59 -24
111 -12 56 14 74 37 85 111 9 60 18 69 57 58 34 -9 67 -42 127 -129 21 -30 83
-106 139 -169 94 -108 101 -118 116 -182 19 -84 19 -105 1 -112 -10 -4 -18 13
-31 59 -9 35 -21 67 -26 70 -13 8 -11 -18 6 -66 30 -85 48 -224 49 -370 1
-208 -23 -328 -130 -650 -81 -243 -188 -447 -319 -606 -22 -26 -52 -66 -67
-89 -108 -158 -197 -244 -318 -304 -55 -28 -115 -52 -133 -55 -17 -2 -64 -10
-103 -16 -63 -10 -87 -8 -214 14 -78 14 -148 30 -154 35 -6 5 -56 24 -110 41
-124 40 -227 86 -291 132 -28 19 -77 49 -110 67 -37 20 -100 70 -165 134 -91
88 -113 116 -162 207 -31 58 -91 157 -133 220 -73 110 -157 270 -170 323 -5
19 -2 26 12 30 12 3 10 5 -9 6 -21 1 -29 9 -41 44 -9 23 -34 93 -57 156 -22
62 -50 157 -61 210 -11 53 -29 125 -40 160 -11 35 -17 72 -13 83 3 10 1 18 -4
18 -20 0 -21 -32 -2 -92 10 -35 28 -106 40 -158 23 -104 57 -215 101 -328 16
-40 29 -79 29 -87 0 -36 -93 -5 -146 49 -49 49 -107 172 -150 315 -29 99 -14
329 25 382 12 16 31 59 42 97 12 37 27 74 34 82 7 8 15 24 18 35 3 11 19 52
35 91 17 39 60 161 96 270 39 115 94 254 131 329 35 72 88 191 118 265 83 204
87 212 121 260 18 25 50 77 70 115 62 115 199 315 268 390 35 39 74 84 86 102
13 18 37 42 54 54 28 20 108 46 149 48 8 1 67 -33 129 -75z m-1341 -36 c-7
-13 -23 -40 -36 -61 -27 -42 -106 -221 -185 -419 -28 -71 -53 -126 -55 -124
-4 4 98 290 141 395 14 35 40 87 58 115 57 90 108 153 77 94z m2001 -1149
c-11 -8 -2 -9 32 -5 26 3 50 1 53 -4 3 -6 -4 -10 -17 -10 -13 0 -32 -3 -43 -5
-11 -3 -26 -1 -34 4 -12 8 -13 12 -1 25 7 9 15 14 19 11 3 -3 -1 -11 -9 -16z
m127 -5 c-3 -3 -12 -4 -19 -1 -8 3 -5 6 6 6 11 1 17 -2 13 -5z m-1843 -1660
c4 -10 1 -14 -6 -12 -15 5 -23 28 -10 28 5 0 13 -7 16 -16z m2503 -86 c-3 -8
-6 -5 -6 6 -1 11 2 17 5 13 3 -3 4 -12 1 -19z"/>
<path d="M2475 3796 c-120 -39 -271 -126 -262 -151 4 -8 -6 -18 -24 -25 -16
-7 -29 -16 -29 -20 0 -5 46 12 102 37 176 77 187 78 633 70 62 -2 108 10 103
26 -6 20 -92 58 -155 68 -32 6 -112 12 -178 14 -106 4 -128 2 -190 -19z m460
-44 c-3 -3 -11 0 -18 7 -9 10 -8 11 6 5 10 -3 15 -9 12 -12z m-562 -30 c-27
-27 -141 -87 -150 -79 -5 5 158 107 170 107 5 0 -4 -13 -20 -28z m548 0 c-13
-2 -27 0 -32 5 -6 6 3 7 23 4 28 -4 29 -6 9 -9z m-73 1 c-10 -2 -26 -2 -35 0
-10 3 -2 5 17 5 19 0 27 -2 18 -5z"/>
<path d="M2625 3439 c-55 -11 -173 -65 -250 -114 -27 -18 -71 -44 -97 -59 -27
-15 -48 -34 -48 -42 0 -14 2 -13 16 1 9 8 35 25 58 37 22 11 59 33 81 48 64
43 145 84 152 77 3 -4 -1 -7 -10 -7 -24 0 -22 -37 6 -90 24 -49 41 -57 133
-59 84 -2 147 55 148 135 1 40 11 35 98 -42 33 -30 64 -52 67 -48 10 11 -110
113 -163 139 -62 29 -124 37 -191 24z"/>
<path d="M3390 3365 c0 -35 161 -363 222 -453 45 -66 100 -188 105 -236 6 -47
-10 -88 -49 -122 -32 -29 -83 -47 -113 -42 -28 6 -34 -8 -7 -16 40 -13 124 26
156 73 54 80 39 153 -69 336 -80 135 -174 319 -206 403 -13 34 -27 62 -31 62
-5 0 -8 -2 -8 -5z"/>
<path d="M2610 3214 l-165 -13 174 4 c102 3 179 9 185 15 7 7 4 9 -9 8 -11 -1
-94 -7 -185 -14z"/>
<path d="M3050 2498 c-1 -46 89 -67 195 -44 l70 16 -97 -6 c-99 -6 -129 1
-155 35 -11 14 -12 14 -13 -1z"/>
<path d="M1807 2344 c-14 -14 -7 -43 16 -70 18 -20 29 -25 45 -20 25 8 40 52
25 75 -10 17 -73 27 -86 15z m67 -20 c12 -12 13 -20 6 -35 -15 -27 -38 -24
-52 7 -10 21 -9 27 3 35 19 12 25 11 43 -7z"/>
<path d="M3618 2010 c-26 -3 -49 -8 -52 -11 -9 -9 349 -2 371 7 25 10 -235 13
-319 4z"/>
<path d="M3902 1970 c-13 -10 -62 -31 -110 -46 -48 -14 -121 -37 -162 -50 -93
-29 -459 -56 -491 -36 -11 7 -54 12 -101 11 -94 -1 -75 -9 67 -28 113 -15 445
8 535 38 36 11 103 32 150 47 87 27 150 59 150 75 0 14 -13 10 -38 -11z"/>
<path d="M3320 1970 c-14 -4 -64 -20 -111 -34 -99 -30 -163 -55 -156 -62 2 -3
26 3 53 12 119 40 241 74 270 74 17 0 48 -7 68 -15 21 -9 36 -11 36 -5 0 14
-68 40 -104 39 -17 0 -42 -4 -56 -9z"/>
<path d="M3819 1844 c-60 -62 -187 -140 -261 -158 -152 -38 -387 16 -490 112
-16 14 -28 21 -28 15 0 -33 136 -110 245 -138 83 -21 237 -20 306 3 88 29 269
159 269 194 0 13 -4 10 -41 -28z"/>
</g>
</svg>
